<svg width="70" height="70" viewBox="0 0 70 70" fill="none" xmlns="http://www.w3.org/2000/svg">
<circle cx="35" cy="35" r="35" fill="url(#paint0_linear_97_380)"/>
<g clip-path="url(#clip0_97_380)">
<path d="M31.25 47C29.8581 46.9984 28.5237 46.4448 27.5394 45.4606C26.5552 44.4763 26.0016 43.1419 26 41.75C26 41.5511 26.079 41.3603 26.2197 41.2197C26.3603 41.079 26.5511 41 26.75 41H35.75C35.9489 41 36.1397 41.079 36.2803 41.2197C36.421 41.3603 36.5 41.5511 36.5 41.75C36.4984 43.1419 35.9448 44.4763 34.9606 45.4606C33.9763 46.4448 32.6419 46.9984 31.25 47ZM27.575 42.5C27.7471 43.3477 28.207 44.1099 28.8768 44.6573C29.5466 45.2047 30.385 45.5038 31.25 45.5038C32.115 45.5038 32.9534 45.2047 33.6232 44.6573C34.293 44.1099 34.7529 43.3477 34.925 42.5H27.575Z" fill="white"/>
<path d="M35.1074 42.1363L31.2502 35.708L27.3929 42.1363L26.1074 41.3638L30.6074 33.8638C30.679 33.7594 30.7749 33.6739 30.8869 33.6149C30.9989 33.5559 31.1236 33.5251 31.2502 33.5251C31.3768 33.5251 31.5014 33.5559 31.6134 33.6149C31.7254 33.6739 31.8214 33.7594 31.8929 33.8638L36.3929 41.3638L35.1074 42.1363Z" fill="white"/>
<path d="M47.75 47C46.3581 46.9984 45.0237 46.4448 44.0394 45.4606C43.0552 44.4763 42.5016 43.1419 42.5 41.75C42.5 41.5511 42.579 41.3603 42.7197 41.2197C42.8603 41.079 43.0511 41 43.25 41H52.25C52.4489 41 52.6397 41.079 52.7803 41.2197C52.921 41.3603 53 41.5511 53 41.75C52.9984 43.1419 52.4448 44.4763 51.4606 45.4606C50.4763 46.4448 49.1419 46.9984 47.75 47ZM44.075 42.5C44.2471 43.3477 44.707 44.1099 45.3768 44.6573C46.0466 45.2047 46.885 45.5038 47.75 45.5038C48.615 45.5038 49.4534 45.2047 50.1232 44.6573C50.793 44.1099 51.2529 43.3477 51.425 42.5H44.075Z" fill="white"/>
<path d="M51.6074 42.1363L47.7502 35.708L43.8929 42.1363L42.6074 41.3638L47.1074 33.8638C47.179 33.7594 47.2749 33.6739 47.3869 33.6149C47.4989 33.5559 47.6236 33.5251 47.7502 33.5251C47.8768 33.5251 48.0014 33.5559 48.1134 33.6149C48.2254 33.6739 48.3214 33.7594 48.3929 33.8638L52.8929 41.3638L51.6074 42.1363Z" fill="white"/>
<path d="M47.75 33.5H31.25V35H47.75V33.5Z" fill="white"/>
<path d="M39.5 32C39.055 32 38.62 31.868 38.25 31.6208C37.88 31.3736 37.5916 31.0222 37.4213 30.611C37.251 30.1999 37.2064 29.7475 37.2932 29.311C37.3801 28.8746 37.5943 28.4737 37.909 28.159C38.2237 27.8443 38.6246 27.6301 39.061 27.5432C39.4975 27.4564 39.9499 27.501 40.361 27.6713C40.7722 27.8416 41.1236 28.13 41.3708 28.5C41.618 28.87 41.75 29.305 41.75 29.75C41.75 30.3467 41.5129 30.919 41.091 31.341C40.669 31.7629 40.0967 32 39.5 32ZM39.5 29C39.3517 29 39.2067 29.044 39.0833 29.1264C38.96 29.2088 38.8639 29.3259 38.8071 29.463C38.7503 29.6 38.7355 29.7508 38.7644 29.8963C38.7934 30.0418 38.8648 30.1754 38.9697 30.2803C39.0746 30.3852 39.2082 30.4567 39.3537 30.4856C39.4992 30.5145 39.65 30.4997 39.787 30.4429C39.9241 30.3861 40.0412 30.29 40.1236 30.1667C40.206 30.0433 40.25 29.8983 40.25 29.75C40.25 29.5511 40.171 29.3603 40.0303 29.2197C39.8897 29.079 39.6989 29 39.5 29Z" fill="white"/>
<path d="M40.25 31.25H38.75V49.25H40.25V31.25Z" fill="white"/>
<path d="M45.5 53H33.5C33.3011 53 33.1103 52.921 32.9697 52.7803C32.829 52.6397 32.75 52.4489 32.75 52.25V50.75C32.75 50.1533 32.9871 49.581 33.409 49.159C33.831 48.7371 34.4033 48.5 35 48.5H44C44.5967 48.5 45.169 48.7371 45.591 49.159C46.0129 49.581 46.25 50.1533 46.25 50.75V52.25C46.25 52.4489 46.171 52.6397 46.0303 52.7803C45.8897 52.921 45.6989 53 45.5 53ZM34.25 51.5H44.75V50.75C44.75 50.5511 44.671 50.3603 44.5303 50.2197C44.3897 50.079 44.1989 50 44 50H35C34.8011 50 34.6103 50.079 34.4697 50.2197C34.329 50.3603 34.25 50.5511 34.25 50.75V51.5Z" fill="white"/>
<path d="M31.25 53H20.75C19.7558 52.9988 18.8027 52.6033 18.0997 51.9003C17.3967 51.1973 17.0012 50.2442 17 49.25V20.75C17.0012 19.7558 17.3967 18.8027 18.0997 18.0997C18.8027 17.3967 19.7558 17.0012 20.75 17H44.75C44.9489 17 45.1397 17.079 45.2803 17.2197C45.421 17.3603 45.5 17.5511 45.5 17.75V32H44V18.5H20.75C20.1533 18.5 19.581 18.7371 19.159 19.159C18.7371 19.581 18.5 20.1533 18.5 20.75V49.25C18.5 49.8467 18.7371 50.419 19.159 50.841C19.581 51.2629 20.1533 51.5 20.75 51.5H31.25V53Z" fill="white"/>
<path d="M21.5 17.75H20V52.25H21.5V17.75Z" fill="white"/>
<path d="M35.75 31.25H26C25.4033 31.25 24.831 31.0129 24.409 30.591C23.9871 30.169 23.75 29.5967 23.75 29V23C23.75 22.4033 23.9871 21.831 24.409 21.409C24.831 20.9871 25.4033 20.75 26 20.75H39.5C40.0967 20.75 40.669 20.9871 41.091 21.409C41.5129 21.831 41.75 22.4033 41.75 23V26H40.25V23C40.25 22.8011 40.171 22.6103 40.0303 22.4697C39.8897 22.329 39.6989 22.25 39.5 22.25H26C25.8011 22.25 25.6103 22.329 25.4697 22.4697C25.329 22.6103 25.25 22.8011 25.25 23V29C25.25 29.1989 25.329 29.3897 25.4697 29.5303C25.6103 29.671 25.8011 29.75 26 29.75H35.75V31.25Z" fill="white"/>
<path d="M38 23.75H27.5V25.25H38V23.75Z" fill="white"/>
<path d="M35.75 26.75H27.5V28.25H35.75V26.75Z" fill="white"/>
</g>
<defs>
<linearGradient id="paint0_linear_97_380" x1="35" y1="0" x2="35" y2="70" gradientUnits="userSpaceOnUse">
<stop stop-color="#667EEA"/>
<stop offset="1" stop-color="#764BA2" stop-opacity="0"/>
</linearGradient>
<clipPath id="clip0_97_380">
<rect width="36" height="36" fill="white" transform="translate(17 17)"/>
</clipPath>
</defs>
</svg>
