<svg width="36" height="36" viewBox="0 0 36 36" fill="none" xmlns="http://www.w3.org/2000/svg">
<g clip-path="url(#clip0_71_826)">
<path d="M14.25 30C12.8581 29.9984 11.5237 29.4448 10.5394 28.4606C9.55522 27.4763 9.00159 26.1419 9 24.75C9 24.5511 9.07902 24.3603 9.21967 24.2197C9.36032 24.079 9.55109 24 9.75 24H18.75C18.9489 24 19.1397 24.079 19.2803 24.2197C19.421 24.3603 19.5 24.5511 19.5 24.75C19.4984 26.1419 18.9448 27.4763 17.9606 28.4606C16.9763 29.4448 15.6419 29.9984 14.25 30ZM10.575 25.5C10.7471 26.3477 11.207 27.1099 11.8768 27.6573C12.5466 28.2047 13.385 28.5038 14.25 28.5038C15.115 28.5038 15.9534 28.2047 16.6232 27.6573C17.293 27.1099 17.7529 26.3477 17.925 25.5H10.575Z" fill="white"/>
<path d="M18.1073 25.1363L14.25 18.708L10.3928 25.1363L9.1073 24.3638L13.6073 16.8638C13.6789 16.7594 13.7748 16.6739 13.8868 16.6149C13.9988 16.5559 14.1235 16.5251 14.25 16.5251C14.3766 16.5251 14.5013 16.5559 14.6133 16.6149C14.7253 16.6739 14.8212 16.7594 14.8928 16.8638L19.3928 24.3638L18.1073 25.1363Z" fill="white"/>
<path d="M30.75 30C29.3581 29.9984 28.0237 29.4448 27.0394 28.4606C26.0552 27.4763 25.5016 26.1419 25.5 24.75C25.5 24.5511 25.579 24.3603 25.7197 24.2197C25.8603 24.079 26.0511 24 26.25 24H35.25C35.4489 24 35.6397 24.079 35.7803 24.2197C35.921 24.3603 36 24.5511 36 24.75C35.9984 26.1419 35.4448 27.4763 34.4606 28.4606C33.4763 29.4448 32.1419 29.9984 30.75 30ZM27.075 25.5C27.2471 26.3477 27.707 27.1099 28.3768 27.6573C29.0466 28.2047 29.885 28.5038 30.75 28.5038C31.615 28.5038 32.4534 28.2047 33.1232 27.6573C33.793 27.1099 34.2529 26.3477 34.425 25.5H27.075Z" fill="white"/>
<path d="M34.6073 25.1363L30.75 18.708L26.8928 25.1363L25.6073 24.3638L30.1073 16.8638C30.1789 16.7594 30.2748 16.6739 30.3868 16.6149C30.4988 16.5559 30.6235 16.5251 30.75 16.5251C30.8766 16.5251 31.0013 16.5559 31.1133 16.6149C31.2253 16.6739 31.3212 16.7594 31.3928 16.8638L35.8928 24.3638L34.6073 25.1363Z" fill="white"/>
<path d="M30.75 16.5H14.25V18H30.75V16.5Z" fill="white"/>
<path d="M22.5 15C22.055 15 21.62 14.868 21.25 14.6208C20.88 14.3736 20.5916 14.0222 20.4213 13.611C20.251 13.1999 20.2064 12.7475 20.2932 12.311C20.3801 11.8746 20.5943 11.4737 20.909 11.159C21.2237 10.8443 21.6246 10.6301 22.061 10.5432C22.4975 10.4564 22.9499 10.501 23.361 10.6713C23.7722 10.8416 24.1236 11.13 24.3708 11.5C24.618 11.87 24.75 12.305 24.75 12.75C24.75 13.3467 24.5129 13.919 24.091 14.341C23.669 14.7629 23.0967 15 22.5 15ZM22.5 12C22.3517 12 22.2067 12.044 22.0833 12.1264C21.96 12.2088 21.8639 12.3259 21.8071 12.463C21.7503 12.6 21.7355 12.7508 21.7644 12.8963C21.7934 13.0418 21.8648 13.1754 21.9697 13.2803C22.0746 13.3852 22.2082 13.4567 22.3537 13.4856C22.4992 13.5145 22.65 13.4997 22.787 13.4429C22.9241 13.3861 23.0412 13.29 23.1236 13.1667C23.206 13.0433 23.25 12.8983 23.25 12.75C23.25 12.5511 23.171 12.3603 23.0303 12.2197C22.8897 12.079 22.6989 12 22.5 12Z" fill="white"/>
<path d="M23.25 14.25H21.75V32.25H23.25V14.25Z" fill="white"/>
<path d="M28.5 36H16.5C16.3011 36 16.1103 35.921 15.9697 35.7803C15.829 35.6397 15.75 35.4489 15.75 35.25V33.75C15.75 33.1533 15.9871 32.581 16.409 32.159C16.831 31.7371 17.4033 31.5 18 31.5H27C27.5967 31.5 28.169 31.7371 28.591 32.159C29.0129 32.581 29.25 33.1533 29.25 33.75V35.25C29.25 35.4489 29.171 35.6397 29.0303 35.7803C28.8897 35.921 28.6989 36 28.5 36ZM17.25 34.5H27.75V33.75C27.75 33.5511 27.671 33.3603 27.5303 33.2197C27.3897 33.079 27.1989 33 27 33H18C17.8011 33 17.6103 33.079 17.4697 33.2197C17.329 33.3603 17.25 33.5511 17.25 33.75V34.5Z" fill="white"/>
<path d="M14.25 36H3.75C2.7558 35.9988 1.80267 35.6033 1.09966 34.9003C0.396661 34.1973 0.00119089 33.2442 0 32.25L0 3.75C0.00119089 2.7558 0.396661 1.80267 1.09966 1.09966C1.80267 0.396661 2.7558 0.00119089 3.75 0L27.75 0C27.9489 0 28.1397 0.0790176 28.2803 0.21967C28.421 0.360322 28.5 0.551088 28.5 0.75V15H27V1.5H3.75C3.15326 1.5 2.58097 1.73705 2.15901 2.15901C1.73705 2.58097 1.5 3.15326 1.5 3.75V32.25C1.5 32.8467 1.73705 33.419 2.15901 33.841C2.58097 34.2629 3.15326 34.5 3.75 34.5H14.25V36Z" fill="white"/>
<path d="M4.5 0.75H3V35.25H4.5V0.75Z" fill="white"/>
<path d="M18.75 14.25H9C8.40326 14.25 7.83097 14.0129 7.40901 13.591C6.98705 13.169 6.75 12.5967 6.75 12V6C6.75 5.40326 6.98705 4.83097 7.40901 4.40901C7.83097 3.98705 8.40326 3.75 9 3.75H22.5C23.0967 3.75 23.669 3.98705 24.091 4.40901C24.5129 4.83097 24.75 5.40326 24.75 6V9H23.25V6C23.25 5.80109 23.171 5.61032 23.0303 5.46967C22.8897 5.32902 22.6989 5.25 22.5 5.25H9C8.80109 5.25 8.61032 5.32902 8.46967 5.46967C8.32902 5.61032 8.25 5.80109 8.25 6V12C8.25 12.1989 8.32902 12.3897 8.46967 12.5303C8.61032 12.671 8.80109 12.75 9 12.75H18.75V14.25Z" fill="white"/>
<path d="M21 6.75H10.5V8.25H21V6.75Z" fill="white"/>
<path d="M18.75 9.75H10.5V11.25H18.75V9.75Z" fill="white"/>
</g>
<defs>
<clipPath id="clip0_71_826">
<rect width="36" height="36" fill="white"/>
</clipPath>
</defs>
</svg>
